<svg width="350" height="232" viewBox="0 0 350 232" fill="none" xmlns="http://www.w3.org/2000/svg">
<g clip-path="url(#clip0_244_23291)">
<rect width="350" height="231.28" rx="9.37621" fill="white" fill-opacity="0.1"/>
<g clip-path="url(#clip1_244_23291)">
<path d="M220.724 52.2559H129.276C123.899 52.2559 119.524 56.6302 119.524 62.0075V133.519C119.524 134.751 120.223 135.875 121.321 136.427L147.325 149.429C148.325 149.929 149.528 149.883 150.487 149.286C150.958 148.995 151.347 148.588 151.617 148.104C151.887 147.621 152.029 147.076 152.03 146.522V136.77H220.724C226.102 136.77 230.476 132.396 230.476 127.018V62.0075C230.476 56.6302 226.102 52.2559 220.724 52.2559Z" fill="url(#paint0_linear_244_23291)"/>
<path d="M148.817 84.6658L147.681 91.4969C147.581 92.0922 147.65 92.7035 147.879 93.262C148.108 93.8205 148.488 94.3042 148.976 94.6586C149.973 95.3854 151.3 95.4775 152.385 94.9158L158.531 91.7255L164.676 94.9158C165.757 95.4782 167.085 95.3896 168.085 94.6586C168.574 94.3041 168.954 93.8205 169.183 93.262C169.411 92.7035 169.48 92.0922 169.381 91.4969L168.244 84.6658L173.177 79.8091C174.053 78.9457 174.371 77.66 173.99 76.4887C173.609 75.3175 172.599 74.4604 171.381 74.2762L164.537 73.2477L161.438 67.0546C160.334 64.8516 156.728 64.8516 155.623 67.0546L152.525 73.2477L145.681 74.2762C144.462 74.4604 143.453 75.3175 143.072 76.4887C142.691 77.66 143.008 78.9457 143.884 79.8091L148.817 84.6658ZM181.756 84.6658L180.62 91.4969C180.52 92.0922 180.589 92.7035 180.818 93.262C181.046 93.8205 181.426 94.3042 181.915 94.6586C182.905 95.3854 184.239 95.4775 185.324 94.9158L191.469 91.7255L197.615 94.9158C198.696 95.4782 200.024 95.3896 201.024 94.6586C201.513 94.3041 201.893 93.8205 202.121 93.262C202.35 92.7035 202.419 92.0922 202.319 91.4969L201.183 84.6658L206.116 79.8091C206.992 78.9457 207.31 77.66 206.929 76.4887C206.548 75.3175 205.538 74.4604 204.319 74.2762L197.475 73.2477L194.377 67.0546C193.272 64.8516 189.667 64.8516 188.562 67.0546L185.464 73.2477L178.62 74.2762C177.401 74.4604 176.391 75.3175 176.01 76.4887C175.629 77.66 175.947 78.9457 176.823 79.8091L181.756 84.6658ZM158.531 107.515C158.531 109.311 159.985 110.765 161.781 110.765H214.223C216.02 110.765 217.474 109.311 217.474 107.515C217.474 105.718 216.02 104.264 214.223 104.264H161.781C159.985 104.264 158.531 105.718 158.531 107.515ZM135.777 110.765H148.779C150.576 110.765 152.03 109.311 152.03 107.515C152.03 105.718 150.576 104.264 148.779 104.264H135.777C133.98 104.264 132.526 105.718 132.526 107.515C132.526 109.311 133.98 110.765 135.777 110.765ZM188.219 117.266H135.777C133.98 117.266 132.526 118.72 132.526 120.517C132.526 122.314 133.98 123.767 135.777 123.767H188.219C190.016 123.767 191.469 122.314 191.469 120.517C191.469 118.72 190.016 117.266 188.219 117.266ZM214.223 117.266H201.221C199.424 117.266 197.971 118.72 197.971 120.517C197.971 122.314 199.424 123.767 201.221 123.767H214.223C216.02 123.767 217.474 122.314 217.474 120.517C217.474 118.72 216.02 117.266 214.223 117.266Z" fill="url(#paint1_linear_244_23291)"/>
</g>
<path d="M143.876 168.833V170.598H139.328V173.396H142.813V175.13H139.328V179.74H137.14V168.833H143.876ZM153.475 175.224C153.475 175.537 153.454 175.818 153.412 176.068H147.084C147.136 176.693 147.354 177.183 147.74 177.537C148.125 177.891 148.599 178.068 149.162 178.068C149.975 178.068 150.553 177.719 150.896 177.021H153.256C153.006 177.855 152.527 178.542 151.818 179.084C151.11 179.615 150.24 179.881 149.209 179.881C148.375 179.881 147.625 179.699 146.958 179.334C146.302 178.959 145.786 178.433 145.411 177.756C145.047 177.078 144.864 176.297 144.864 175.412C144.864 174.516 145.047 173.729 145.411 173.052C145.776 172.375 146.287 171.854 146.943 171.489C147.599 171.125 148.355 170.942 149.209 170.942C150.032 170.942 150.766 171.119 151.412 171.474C152.069 171.828 152.574 172.333 152.928 172.989C153.293 173.635 153.475 174.38 153.475 175.224ZM151.209 174.599C151.199 174.036 150.995 173.588 150.6 173.255C150.204 172.911 149.719 172.739 149.146 172.739C148.605 172.739 148.146 172.906 147.771 173.239C147.406 173.562 147.182 174.016 147.099 174.599H151.209ZM163.12 175.224C163.12 175.537 163.099 175.818 163.057 176.068H156.728C156.78 176.693 156.999 177.183 157.385 177.537C157.77 177.891 158.244 178.068 158.807 178.068C159.619 178.068 160.197 177.719 160.541 177.021H162.901C162.651 177.855 162.172 178.542 161.463 179.084C160.755 179.615 159.885 179.881 158.854 179.881C158.02 179.881 157.27 179.699 156.603 179.334C155.947 178.959 155.431 178.433 155.056 177.756C154.692 177.078 154.509 176.297 154.509 175.412C154.509 174.516 154.692 173.729 155.056 173.052C155.421 172.375 155.931 171.854 156.588 171.489C157.244 171.125 157.999 170.942 158.854 170.942C159.677 170.942 160.411 171.119 161.057 171.474C161.713 171.828 162.219 172.333 162.573 172.989C162.937 173.635 163.12 174.38 163.12 175.224ZM160.854 174.599C160.843 174.036 160.64 173.588 160.244 173.255C159.848 172.911 159.364 172.739 158.791 172.739C158.249 172.739 157.791 172.906 157.416 173.239C157.051 173.562 156.827 174.016 156.744 174.599H160.854ZM164.154 175.38C164.154 174.505 164.326 173.729 164.67 173.052C165.024 172.375 165.503 171.854 166.107 171.489C166.712 171.125 167.384 170.942 168.123 170.942C168.686 170.942 169.222 171.067 169.733 171.317C170.243 171.557 170.65 171.88 170.952 172.286V168.176H173.171V179.74H170.952V178.459C170.681 178.886 170.301 179.23 169.811 179.49C169.321 179.751 168.754 179.881 168.108 179.881C167.378 179.881 166.712 179.693 166.107 179.318C165.503 178.943 165.024 178.417 164.67 177.74C164.326 177.052 164.154 176.266 164.154 175.38ZM170.967 175.412C170.967 174.88 170.863 174.427 170.655 174.052C170.447 173.667 170.165 173.375 169.811 173.177C169.457 172.969 169.077 172.864 168.67 172.864C168.264 172.864 167.889 172.963 167.545 173.161C167.201 173.359 166.92 173.651 166.701 174.036C166.493 174.411 166.389 174.859 166.389 175.38C166.389 175.901 166.493 176.36 166.701 176.755C166.92 177.141 167.201 177.438 167.545 177.646C167.899 177.855 168.274 177.959 168.67 177.959C169.077 177.959 169.457 177.86 169.811 177.662C170.165 177.453 170.447 177.162 170.655 176.787C170.863 176.401 170.967 175.943 170.967 175.412ZM177.495 172.349C177.777 171.932 178.162 171.593 178.652 171.333C179.152 171.072 179.72 170.942 180.355 170.942C181.095 170.942 181.762 171.125 182.355 171.489C182.96 171.854 183.434 172.375 183.777 173.052C184.132 173.719 184.309 174.495 184.309 175.38C184.309 176.266 184.132 177.052 183.777 177.74C183.434 178.417 182.96 178.943 182.355 179.318C181.762 179.693 181.095 179.881 180.355 179.881C179.709 179.881 179.141 179.756 178.652 179.506C178.173 179.245 177.787 178.912 177.495 178.506V179.74H175.308V168.176H177.495V172.349ZM182.074 175.38C182.074 174.859 181.965 174.411 181.746 174.036C181.538 173.651 181.256 173.359 180.902 173.161C180.558 172.963 180.183 172.864 179.777 172.864C179.381 172.864 179.006 172.969 178.652 173.177C178.308 173.375 178.027 173.667 177.808 174.052C177.6 174.437 177.495 174.891 177.495 175.412C177.495 175.932 177.6 176.386 177.808 176.771C178.027 177.157 178.308 177.453 178.652 177.662C179.006 177.86 179.381 177.959 179.777 177.959C180.183 177.959 180.558 177.855 180.902 177.646C181.256 177.438 181.538 177.141 181.746 176.755C181.965 176.37 182.074 175.912 182.074 175.38ZM185.336 175.38C185.336 174.505 185.508 173.729 185.852 173.052C186.206 172.375 186.68 171.854 187.274 171.489C187.878 171.125 188.55 170.942 189.29 170.942C189.936 170.942 190.498 171.072 190.977 171.333C191.467 171.593 191.858 171.922 192.149 172.317V171.083H194.353V179.74H192.149V178.474C191.868 178.881 191.477 179.219 190.977 179.49C190.488 179.751 189.92 179.881 189.274 179.881C188.545 179.881 187.878 179.693 187.274 179.318C186.68 178.943 186.206 178.417 185.852 177.74C185.508 177.052 185.336 176.266 185.336 175.38ZM192.149 175.412C192.149 174.88 192.045 174.427 191.837 174.052C191.628 173.667 191.347 173.375 190.993 173.177C190.639 172.969 190.258 172.864 189.852 172.864C189.446 172.864 189.071 172.963 188.727 173.161C188.383 173.359 188.102 173.651 187.883 174.036C187.675 174.411 187.571 174.859 187.571 175.38C187.571 175.901 187.675 176.36 187.883 176.755C188.102 177.141 188.383 177.438 188.727 177.646C189.081 177.855 189.456 177.959 189.852 177.959C190.258 177.959 190.639 177.86 190.993 177.662C191.347 177.453 191.628 177.162 191.837 176.787C192.045 176.401 192.149 175.943 192.149 175.412ZM195.927 175.412C195.927 174.516 196.109 173.734 196.474 173.068C196.839 172.39 197.344 171.869 197.99 171.505C198.636 171.13 199.375 170.942 200.209 170.942C201.282 170.942 202.167 171.213 202.865 171.755C203.574 172.286 204.048 173.036 204.287 174.005H201.928C201.803 173.63 201.589 173.338 201.287 173.13C200.995 172.911 200.631 172.802 200.193 172.802C199.568 172.802 199.073 173.031 198.709 173.489C198.344 173.937 198.162 174.578 198.162 175.412C198.162 176.235 198.344 176.875 198.709 177.334C199.073 177.782 199.568 178.006 200.193 178.006C201.079 178.006 201.657 177.61 201.928 176.818H204.287C204.048 177.756 203.574 178.5 202.865 179.053C202.157 179.605 201.271 179.881 200.209 179.881C199.375 179.881 198.636 179.699 197.99 179.334C197.344 178.959 196.839 178.438 196.474 177.771C196.109 177.094 195.927 176.308 195.927 175.412ZM211.016 179.74L208.078 176.052V179.74H205.89V168.176H208.078V174.755L210.985 171.083H213.829L210.016 175.427L213.86 179.74H211.016Z" fill="white"/>
<g filter="url(#filter0_f_244_23291)">
<circle cx="91.8087" cy="91.8087" r="91.8087" transform="matrix(-1 0 0 1 164.083 -19.5352)" fill="#034DA0" fill-opacity="0.5"/>
</g>
<g filter="url(#filter1_f_244_23291)">
<circle cx="91.8087" cy="91.8087" r="91.8087" transform="matrix(-1 0 0 1 535.225 67.1953)" fill="#874295" fill-opacity="0.5"/>
</g>
</g>
<defs>
<filter id="filter0_f_244_23291" x="-101.576" y="-101.577" width="347.701" height="347.701" filterUnits="userSpaceOnUse" color-interpolation-filters="sRGB">
<feFlood flood-opacity="0" result="BackgroundImageFix"/>
<feBlend mode="normal" in="SourceGraphic" in2="BackgroundImageFix" result="shape"/>
<feGaussianBlur stdDeviation="41.0209" result="effect1_foregroundBlur_244_23291"/>
</filter>
<filter id="filter1_f_244_23291" x="269.566" y="-14.8465" width="347.701" height="347.701" filterUnits="userSpaceOnUse" color-interpolation-filters="sRGB">
<feFlood flood-opacity="0" result="BackgroundImageFix"/>
<feBlend mode="normal" in="SourceGraphic" in2="BackgroundImageFix" result="shape"/>
<feGaussianBlur stdDeviation="41.0209" result="effect1_foregroundBlur_244_23291"/>
</filter>
<linearGradient id="paint0_linear_244_23291" x1="175" y1="149.772" x2="175" y2="52.2559" gradientUnits="userSpaceOnUse">
<stop stop-color="#5558FF"/>
<stop offset="1" stop-color="#00C0FF"/>
</linearGradient>
<linearGradient id="paint1_linear_244_23291" x1="175" y1="123.767" x2="175" y2="65.4022" gradientUnits="userSpaceOnUse">
<stop stop-color="#ADDCFF"/>
<stop offset="0.503" stop-color="#EAF6FF"/>
<stop offset="1" stop-color="#EAF6FF"/>
</linearGradient>
<clipPath id="clip0_244_23291">
<rect width="350" height="231.28" rx="9.37621" fill="white"/>
</clipPath>
<clipPath id="clip1_244_23291">
<rect width="110.952" height="110.952" fill="white" transform="translate(119.524 45.5391)"/>
</clipPath>
</defs>
</svg>
