<svg width="112" height="112" viewBox="0 0 112 112" fill="none" xmlns="http://www.w3.org/2000/svg">
<g clip-path="url(#clip0_244_23292)">
<path d="M101.724 7.25586H10.2758C4.89853 7.25586 0.52417 11.6302 0.52417 17.0075V88.5194C0.52417 89.7511 1.2226 90.8747 2.32085 91.4271L28.3252 104.429C29.3253 104.929 30.5277 104.883 31.4869 104.286C31.9583 103.995 32.3475 103.588 32.6175 103.104C32.8875 102.621 33.0293 102.076 33.0296 101.522V91.7699H101.724C107.102 91.7699 111.476 87.3955 111.476 82.0183V17.0075C111.476 11.6302 107.102 7.25586 101.724 7.25586Z" fill="url(#paint0_linear_244_23292)"/>
<path d="M29.8172 39.6658L28.6808 46.4969C28.5814 47.0922 28.6499 47.7035 28.8787 48.262C29.1075 48.8205 29.4875 49.3042 29.976 49.6586C30.9729 50.3854 32.2998 50.4775 33.3852 49.9158L39.5307 46.7255L45.6762 49.9158C46.7571 50.4782 48.0848 50.3896 49.0853 49.6586C49.5738 49.3041 49.9538 48.8205 50.1826 48.262C50.4114 47.7035 50.4799 47.0922 50.3806 46.4969L49.2442 39.6658L54.1772 34.8091C55.0533 33.9457 55.3708 32.66 54.9898 31.4887C54.6089 30.3175 53.5995 29.4604 52.3805 29.2762L45.5366 28.2477L42.4384 22.0546C41.3337 19.8516 37.7277 19.8516 36.623 22.0546L33.5248 28.2477L26.6809 29.2762C25.4619 29.4604 24.4525 30.3175 24.0716 31.4887C23.6906 32.66 24.0081 33.9457 24.8842 34.8091L29.8172 39.6658ZM62.756 39.6658L61.6196 46.4969C61.5202 47.0922 61.5888 47.7035 61.8176 48.262C62.0464 48.8205 62.4263 49.3042 62.9149 49.6586C63.9052 50.3854 65.2386 50.4775 66.324 49.9158L72.4695 46.7255L78.615 49.9158C79.6959 50.4782 81.0236 50.3896 82.0241 49.6586C82.5126 49.3041 82.8926 48.8205 83.1214 48.262C83.3502 47.7035 83.4187 47.0922 83.3194 46.4969L82.183 39.6658L87.116 34.8091C87.9921 33.9457 88.3096 32.66 87.9286 31.4887C87.5477 30.3175 86.5383 29.4604 85.3193 29.2762L78.4754 28.2477L75.3772 22.0546C74.2725 19.8516 70.6665 19.8516 69.5618 22.0546L66.4636 28.2477L59.6197 29.2762C58.4007 29.4604 57.3913 30.3175 57.0104 31.4887C56.6294 32.66 56.9469 33.9457 57.823 34.8091L62.756 39.6658ZM39.5307 62.5147C39.5307 64.3114 40.9845 65.7653 42.7812 65.7653H95.2233C97.02 65.7653 98.4738 64.3114 98.4738 62.5147C98.4738 60.718 97.02 59.2642 95.2233 59.2642H42.7812C40.9845 59.2642 39.5307 60.718 39.5307 62.5147ZM16.7769 65.7653H29.7791C31.5757 65.7653 33.0296 64.3114 33.0296 62.5147C33.0296 60.718 31.5757 59.2642 29.7791 59.2642H16.7769C14.9802 59.2642 13.5264 60.718 13.5264 62.5147C13.5264 64.3114 14.9802 65.7653 16.7769 65.7653ZM69.219 72.2663H16.7769C14.9802 72.2663 13.5264 73.7202 13.5264 75.5169C13.5264 77.3136 14.9802 78.7674 16.7769 78.7674H69.219C71.0156 78.7674 72.4695 77.3136 72.4695 75.5169C72.4695 73.7202 71.0156 72.2663 69.219 72.2663ZM95.2233 72.2663H82.2211C80.4244 72.2663 78.9706 73.7202 78.9706 75.5169C78.9706 77.3136 80.4244 78.7674 82.2211 78.7674H95.2233C97.02 78.7674 98.4738 77.3136 98.4738 75.5169C98.4738 73.7202 97.02 72.2663 95.2233 72.2663Z" fill="url(#paint1_linear_244_23292)"/>
</g>
<defs>
<linearGradient id="paint0_linear_244_23292" x1="56.0001" y1="104.772" x2="56.0001" y2="7.25586" gradientUnits="userSpaceOnUse">
<stop stop-color="#5558FF"/>
<stop offset="1" stop-color="#00C0FF"/>
</linearGradient>
<linearGradient id="paint1_linear_244_23292" x1="56.0001" y1="78.7674" x2="56.0001" y2="20.4022" gradientUnits="userSpaceOnUse">
<stop stop-color="#ADDCFF"/>
<stop offset="0.503" stop-color="#EAF6FF"/>
<stop offset="1" stop-color="#EAF6FF"/>
</linearGradient>
<clipPath id="clip0_244_23292">
<rect width="110.952" height="110.952" fill="white" transform="translate(0.52417 0.539062)"/>
</clipPath>
</defs>
</svg>
