<svg width="97" height="116" viewBox="0 0 97 116" fill="none" xmlns="http://www.w3.org/2000/svg">
<path d="M94.6393 77.941C95.4192 79.2296 94.4924 80.8686 92.9888 80.8686H45.2405V36.1836H92.9888C94.4921 36.1836 95.4192 37.8226 94.6393 39.1L82.9396 58.5205L94.6393 77.941Z" fill="#F55766"/>
<path opacity="0.2" d="M94.6379 39.1085L91.9829 43.5086H45.2405V36.1836H92.9867C94.4877 36.1836 95.4131 37.8232 94.6379 39.1085Z" fill="white"/>
<path d="M59.3551 69.2948L45.2382 80.8646V69.2948H59.3551ZM4.51208 10.0938H12.4024V114.17H4.51208V10.0938Z" fill="#FDFDFF"/>
<path opacity="0.1" d="M12.4023 10.0938V18.4022C9.86919 19.4117 7.04546 19.4117 4.51233 18.4022V10.0938H12.4023Z" fill="black"/>
<path d="M8.45179 15.7734C12.4952 15.7734 15.7731 12.4956 15.7731 8.45215C15.7731 4.40871 12.4952 1.13086 8.45179 1.13086C4.40835 1.13086 1.13049 4.40871 1.13049 8.45215C1.13049 12.4956 4.40835 15.7734 8.45179 15.7734Z" fill="#F7D100"/>
<path opacity="0.2" d="M10.7747 15.3855C10.0289 15.641 9.24582 15.7708 8.45747 15.7697C4.41073 15.7697 1.13245 12.503 1.13245 8.45588C1.13245 4.40881 4.41073 1.13086 8.45747 1.13086C9.27136 1.13086 10.0513 1.26651 10.7747 1.51508C7.86943 2.47581 5.77841 5.2227 5.77841 8.45588C5.77841 11.6891 7.86943 14.4248 10.7747 15.3855Z" fill="white"/>
<path opacity="0.1" d="M45.2405 36.1836H62.7503V72.6842H45.2405V36.1836Z" fill="black"/>
<path d="M59.355 27.8175V69.2954H12.3969V24.6094H56.1469C57.9188 24.6097 59.355 26.0459 59.355 27.8175Z" fill="#F55766"/>
<path opacity="0.2" d="M59.3591 27.8175V31.7313H26.6281C22.5359 31.7313 19.2183 35.0489 19.2183 39.1411V69.2947H12.402V24.6094H56.151C56.5723 24.6094 56.9895 24.6924 57.3787 24.8536C57.7679 25.0148 58.1216 25.2511 58.4195 25.549C58.7174 25.8469 58.9537 26.2006 59.1149 26.5898C59.2761 26.979 59.3591 27.3962 59.3591 27.8175Z" fill="white"/>
<path d="M3.37697 15.1943V114.171C3.37697 114.319 3.40621 114.466 3.46301 114.603C3.51981 114.741 3.60307 114.865 3.70802 114.97C3.81298 115.075 3.93758 115.158 4.07472 115.215C4.21185 115.272 4.35883 115.301 4.50726 115.301H12.3969C12.5454 115.301 12.6923 115.272 12.8295 115.215C12.9666 115.158 13.0912 115.075 13.1962 114.97C13.3011 114.865 13.3844 114.741 13.4412 114.603C13.498 114.466 13.5272 114.319 13.5272 114.171V70.4257H44.1071V80.8655C44.1071 81.4162 44.5856 81.9958 45.2374 81.9958H92.9898C95.3697 81.9958 96.8398 79.3978 95.6095 77.3576L84.2584 58.5222L95.6095 39.686C96.8381 37.6489 95.3735 35.0485 92.9898 35.0485H60.485V27.8174C60.485 25.4253 58.5388 23.4791 56.1466 23.4791H13.5275V15.194C15.5735 13.65 16.9038 11.2066 16.9038 8.45158C16.9038 3.79138 13.1125 0 8.45226 0C3.79171 0 0 3.79138 0 8.45158C0 11.2066 1.33105 13.6503 3.37697 15.1943ZM11.2666 113.04H5.63789V16.4118C6.51995 16.7244 7.4644 16.9038 8.45226 16.9038C9.44012 16.9038 10.3846 16.7244 11.2666 16.4118V113.04ZM60.0716 70.1696C60.3239 69.9621 60.4857 69.5667 60.4857 69.2954V37.3095H92.9905C93.6127 37.3095 93.9943 37.988 93.6738 38.5188V38.5194L81.971 57.9389C81.8649 58.115 81.8088 58.3167 81.8088 58.5223C81.8088 58.728 81.8649 58.9297 81.971 59.1058L93.6734 78.5246C93.9936 79.0566 93.6127 79.7349 92.9901 79.7349H48.4004L60.0716 70.1696ZM46.3684 78.4774V70.4257H56.1927L46.3684 78.4774ZM56.1473 25.74C56.698 25.7407 57.226 25.9598 57.6155 26.3493C58.0049 26.7387 58.224 27.2667 58.2248 27.8174V68.1647H13.5275V25.74H56.1473ZM8.45226 2.26092C11.8662 2.26092 14.6429 5.03765 14.6429 8.45158C14.6429 11.8655 11.8662 14.6429 8.45226 14.6429C5.03832 14.6429 2.26092 11.8655 2.26092 8.45158C2.26092 5.03765 5.03832 2.26092 8.45226 2.26092Z" fill="#2E2E6D"/>
</svg>
